<svg xmlns="http://www.w3.org/2000/svg" xmlns:xlink="http://www.w3.org/1999/xlink" width="131" height="34" viewBox="0 0 131 34">
    <defs>
        <path id="a" d="M.364 33.56H24.49V.222H.364z"/>
        <path id="c" d="M.053.223h23.632v33.336H.053V.223z"/>
        <path id="e" d="M.386.223h25.205v33.336H.386z"/>
        <path id="g" d="M.37.223h2.606v33.336H.37z"/>
    </defs>
    <g fill="none" fill-rule="evenodd">
        <g transform="translate(40.873 .208)">
            <mask id="b" fill="#fff">
                <use xlink:href="#a"/>
            </mask>
            <path fill="#FFF" d="M13.348 18.553c1.138 0 2.224-.18 3.258-.539a8.512 8.512 0 0 0 2.74-1.55 7.358 7.358 0 0 0 1.888-2.471c.463-.973.696-2.073.696-3.302a7.788 7.788 0 0 0-.607-3.055A7.823 7.823 0 0 0 19.64 5.12a8.135 8.135 0 0 0-2.516-1.707 7.658 7.658 0 0 0-3.1-.63H2.924v15.77h10.423zm.764-18.33c1.438 0 2.793.277 4.066.83A10.414 10.414 0 0 1 21.48 3.3a10.56 10.56 0 0 1 2.202 3.325c.54 1.273.808 2.628.808 4.066 0 2.127-.569 4.043-1.707 5.75-1.138 1.708-2.62 2.966-4.448 3.775l5.662 12.49c.119.21.134.404.044.584-.09.18-.269.27-.539.27H21.93c-.24 0-.435-.136-.584-.405L15.82 20.89c-.3.06-.6.112-.9.157-.299.045-.644.067-1.033.067H2.925V32.75c0 .54-.27.81-.809.81h-.943c-.54 0-.809-.27-.809-.81V.987c0-.51.27-.764.809-.764h12.94z" mask="url(#b)"/>
        </g>
        <g transform="translate(71.421 .208)">
            <mask id="d" fill="#fff">
                <use xlink:href="#c"/>
            </mask>
            <path fill="#FFF" d="M.053 32.84V.941c0-.478.24-.719.719-.719h21.835c.509 0 .763.21.763.63v1.213c0 .48-.254.719-.763.719H2.614v12.04h16.039c.569 0 .854.24.854.72v1.167c0 .48-.285.72-.854.72H2.613v13.567h20.308c.51 0 .764.195.764.584v1.348c0 .42-.255.63-.764.63H.771c-.479 0-.718-.24-.718-.72" mask="url(#d)"/>
        </g>
        <g transform="translate(97.236 .208)">
            <mask id="f" fill="#fff">
                <use xlink:href="#e"/>
            </mask>
            <path fill="#FFF" d="M1.195.223h23.497c.24 0 .45.067.63.202.179.135.269.337.269.607v.988c0 .539-.3.809-.899.809H14.27V32.75c0 .538-.27.808-.809.808h-.943c-.54 0-.809-.27-.809-.808V2.829H1.195c-.54 0-.809-.3-.809-.9v-.897c0-.54.27-.81.809-.81" mask="url(#f)"/>
        </g>
        <g transform="translate(127.353 .208)">
            <mask id="h" fill="#fff">
                <use xlink:href="#g"/>
            </mask>
            <path fill="#FFF" d="M.37 32.75V1.031c0-.539.284-.809.854-.809h.898c.57 0 .854.27.854.81V32.75c0 .54-.285.81-.854.81h-.898c-.57 0-.854-.27-.854-.81" mask="url(#h)"/>
        </g>
        <path fill="#FFF" d="M33.023.642H0v2.854h10.96c1.503 0 2.913.29 4.23.868 1.316.579 2.466 1.36 3.45 2.344a11.222 11.222 0 0 1 2.343 3.449c.578 1.316.867 2.726.867 4.23 0 1.1-.151 2.148-.455 3.147a11.11 11.11 0 0 1-1.259 2.754c-.535.84-1.186 1.6-1.952 2.279a10.568 10.568 0 0 1-2.539 1.67l6.073 9.429h11.305V.642z"/>
        <path fill="#FFF" d="M6.576 25.322l2.127-5.207h2.256c1.562 0 2.907-.564 4.036-1.692.52-.55.925-1.172 1.215-1.866a5.593 5.593 0 0 0 .433-2.17 5.6 5.6 0 0 0-.433-2.17 5.6 5.6 0 0 0-1.215-1.821c-1.129-1.129-2.474-1.693-4.036-1.693H0v24.963h15.513l-5.378-8.344H6.576z"/>
    </g>
</svg>
