<svg xmlns="http://www.w3.org/2000/svg" width="38" height="44" viewBox="0 0 38 44">
    <g fill="#FFF" fill-rule="nonzero">
        <path d="M8.7 21h19.6c.387 0 .7-.224.7-.5s-.313-.5-.7-.5H8.7c-.387 0-.7.224-.7.5s.313.5.7.5zM20.278 16H8.722c-.4 0-.722.224-.722.5s.323.5.722.5h11.556c.4 0 .722-.224.722-.5s-.323-.5-.722-.5zM19 25.5c0 .276.335.5.75.5h7.5c.415 0 .75-.224.75-.5s-.335-.5-.75-.5h-7.5c-.415 0-.75.224-.75.5zM22.714 11.636h3.429c.395 0 1.38-.325 1.38-.727a.72.72 0 0 0-.714-.727h-3.333c.323-2.375 2.187-2.908 2.268-2.931a.724.724 0 0 0 .542-.705v-2.91a.72.72 0 0 0-.715-.727c-.225 0-.557-.054-.714-.125v-1.33h4.286v1.33c-.149.066-.463.124-.714.125a.72.72 0 0 0-.715.727v2.91c0 .333.224.624.542.705.02.006 1.94.523 2.268 2.93H27a.72.72 0 0 0-.714.728v4.364c0 .401.32.727.714.727a.72.72 0 0 0 .714-.727v-3.637h3.572A.72.72 0 0 0 32 10.91c0-2.864-1.65-4.333-2.857-4.876V4.295c.758-.151 1.429-.567 1.429-1.386V.727A.721.721 0 0 0 29.857 0h-5.714a.72.72 0 0 0-.715.727V2.91c0 .819.671 1.235 1.43 1.386v1.738C23.648 6.576 22 8.045 22 10.909c0 .402.32.727.714.727zM8.714 26h8.572c.395 0 .714-.224.714-.5s-.32-.5-.714-.5H8.714c-.395 0-.714.224-.714.5s.32.5.714.5z"/>
        <path d="M34.294 6h-.741a.736.736 0 0 0-.741.73c0 .404.331.731.74.731h.742c1.226 0 2.224.984 2.224 2.193v30.692c0 1.209-.998 2.193-2.224 2.193H10.741a.736.736 0 0 0-.741.73c0 .404.331.731.741.731h23.553C36.337 44 38 42.36 38 40.346V9.654C38 7.639 36.337 6 34.294 6z"/>
        <path d="M8.69 32.308H1.004c-.4 0-.724.327-.724.73 0 .404.324.731.724.731H8.69c.798 0 1.448.656 1.448 1.462v6.274l-8.69-8.77V9.655c0-1.209.975-2.193 2.173-2.193h16.655c.4 0 .724-.327.724-.73A.727.727 0 0 0 20.276 6H3.62C1.624 6 0 7.64 0 9.654v23.384c0 .194.076.38.212.517l10.138 10.23a.72.72 0 0 0 1.236-.516v-8.038c0-1.612-1.299-2.923-2.896-2.923zM17.75 30h10.5c.415 0 .75-.224.75-.5s-.335-.5-.75-.5h-10.5c-.415 0-.75.224-.75.5s.335.5.75.5z"/>
    </g>
</svg>
